<?xml version="1.0" encoding="utf-8"?>
<!-- Generator: Adobe Illustrator 19.1.0, SVG Export Plug-In . SVG Version: 6.00 Build 0)  -->
<!DOCTYPE svg PUBLIC "-//W3C//DTD SVG 1.0//EN" "http://www.w3.org/TR/2001/REC-SVG-20010904/DTD/svg10.dtd">
<svg version="1.0" id="Ebene_1" xmlns="http://www.w3.org/2000/svg" xmlns:xlink="http://www.w3.org/1999/xlink" x="0px" y="0px"
	 viewBox="0 0 254.2 101.4" enable-background="new 0 0 254.2 101.4" xml:space="preserve">
<g>
	<g>
		<polygon fill-rule="evenodd" clip-rule="evenodd" fill="#002F87" points="26.7,24 37,24 40.9,0 30.7,0 26.7,24 		"/>
	</g>
	<g>
		<polygon fill-rule="evenodd" clip-rule="evenodd" fill="#002F87" points="10.3,0 0,0 0,61.6 10.3,61.6 10.3,0 		"/>
	</g>
	<g>
		<polygon fill-rule="evenodd" clip-rule="evenodd" fill="#002F87" points="61.4,0 51.2,0 51.2,61.6 61.4,61.6 61.4,0 		"/>
	</g>
	<g>
		<polygon fill-rule="evenodd" clip-rule="evenodd" fill="#002F87" points="30.7,61.6 35.3,34.2 25,34.2 20.5,61.6 30.7,61.6 		"/>
	</g>
</g>
<g>
	<path fill="#55565A" d="M14.8,101.2h-2.1l-1.6-4.3H3.6L2,101.2H0l6.2-16.8h2.4L14.8,101.2z M4.1,95.1h6.5l-3.2-8.6L4.1,95.1z"/>
	<path fill="#55565A" d="M25.6,84.4h6.3c3.3,0,5.4,1.6,5.4,5.2c0,3.6-2.1,5.2-5.4,5.2h-4.3v6.4h-2V84.4z M27.6,93.1h4.3
		c2.1,0,3.4-1,3.4-3.5c0-2.4-1.3-3.5-3.4-3.5h-4.3V93.1z"/>
	<path fill="#55565A" d="M52.9,95.4c0,3.9-2.5,6-6.5,6c-4,0-6.5-2.2-6.5-6v-5.2c0-3.9,2.5-6,6.5-6c4,0,6.5,2.1,6.5,6V95.4z
		 M50.9,90.2c0-2.7-1.7-4.3-4.5-4.3c-2.9,0-4.5,1.6-4.5,4.3v5.2c0,2.7,1.7,4.3,4.5,4.3c2.9,0,4.5-1.6,4.5-4.3V90.2z"/>
	<path fill="#55565A" d="M56.8,84.4h6.7c3.3,0,5.4,1.6,5.4,5.2c0,2.7-1.2,4.3-3.1,4.9l3.3,6.7h-2.3l-3-6.4h-4.9v6.4h-2V84.4z
		 M58.8,93.1h4.6c2.1,0,3.4-1,3.4-3.5c0-2.4-1.3-3.5-3.4-3.5h-4.6V93.1z"/>
	<path fill="#55565A" d="M79.9,93.9l-3.2-0.6c-2.6-0.5-4.2-1.9-4.2-4.5c0-3.1,2.2-4.7,6-4.7s6,1.7,6,5.1v0.2h-2v-0.2
		c0-2.2-1.4-3.3-4-3.3c-2.6,0-3.9,1-3.9,2.9c0,1.6,1,2.4,2.6,2.8l3.2,0.6c2.7,0.5,4.2,1.9,4.2,4.4c0,3.2-2.3,4.9-6.1,4.9
		c-3.8,0-6.1-1.7-6.1-5.1v-0.2h2v0.2c0,2.2,1.5,3.3,4.1,3.3c2.6,0,4.1-1,4.1-3C82.5,95.1,81.5,94.3,79.9,93.9z"/>
	<path fill="#55565A" d="M100.8,95.8L100.8,95.8c0,3.6-2.4,5.6-6.3,5.6c-4,0-6.5-2.2-6.5-6v-5.2c0-3.9,2.5-6,6.5-6
		c3.9,0,6.3,2,6.3,5.5v0.1h-2v-0.1c0-2.4-1.6-3.8-4.3-3.8c-2.8,0-4.5,1.6-4.5,4.3v5.2c0,2.7,1.7,4.3,4.5,4.3c2.7,0,4.3-1.4,4.3-3.8
		v-0.1H100.8z"/>
	<path fill="#55565A" d="M115.2,93.6h-8.5v7.6h-2V84.4h2v7.5h8.5v-7.5h2v16.8h-2V93.6z"/>
	<path fill="#55565A" d="M121.4,84.4h10.8v1.7h-8.9v5.8h7.7v1.7h-7.7v5.8h8.9v1.7h-10.8V84.4z"/>
	<path fill="#55565A" d="M156.9,95.8L156.9,95.8c0,3.6-2.4,5.6-6.3,5.6c-4,0-6.5-2.2-6.5-6v-5.2c0-3.9,2.5-6,6.5-6
		c3.9,0,6.3,2,6.3,5.5v0.1h-2v-0.1c0-2.4-1.6-3.8-4.3-3.8c-2.8,0-4.5,1.6-4.5,4.3v5.2c0,2.7,1.7,4.3,4.5,4.3c2.7,0,4.3-1.4,4.3-3.8
		v-0.1H156.9z"/>
	<path fill="#55565A" d="M173,95.4c0,3.9-2.5,6-6.5,6c-4,0-6.5-2.2-6.5-6v-5.2c0-3.9,2.5-6,6.5-6c4,0,6.5,2.1,6.5,6V95.4z M171,90.2
		c0-2.7-1.7-4.3-4.5-4.3c-2.9,0-4.5,1.6-4.5,4.3v5.2c0,2.7,1.7,4.3,4.5,4.3c2.9,0,4.5-1.6,4.5-4.3V90.2z"/>
	<path fill="#55565A" d="M189.5,88.3l-5.3,9.8l-5.2-9.8v12.9h-2V84.4h1.9l5.3,9.9l5.3-9.9h1.9v16.8h-2V88.3z"/>
	<path fill="#55565A" d="M195.6,84.4h6.3c3.3,0,5.4,1.6,5.4,5.2c0,3.6-2.1,5.2-5.4,5.2h-4.3v6.4h-2V84.4z M197.6,93.1h4.3
		c2.1,0,3.4-1,3.4-3.5c0-2.4-1.3-3.5-3.4-3.5h-4.3V93.1z"/>
	<path fill="#55565A" d="M222,101.2h-2.1l-1.6-4.3h-7.6l-1.6,4.3h-2l6.2-16.8h2.4L222,101.2z M211.2,95.1h6.5l-3.2-8.6L211.2,95.1z"
		/>
	<path fill="#55565A" d="M226.6,88v13.2h-2V84.4h1.9l8.7,13.2V84.4h2v16.8h-1.9L226.6,88z"/>
	<path fill="#55565A" d="M248,101.2h-2v-6.4l-6.3-10.4h2.4l4.9,8.4l4.9-8.4h2.3L248,94.8V101.2z"/>
</g>
<g>
	<polygon fill="#55565A" points="187.4,27 160.9,27 160.9,0 150.4,0 150.4,61.6 160.9,61.6 160.9,36.1 187.4,36.1 187.4,61.6 
		197.9,61.6 197.9,0 187.4,0 	"/>
	<path fill="#55565A" d="M233.9,0h-24.3v61.6h10.5V36.1h13.8c12.4,0,20.3-5.7,20.3-18C254.2,4.8,246.2,0,233.9,0z M233.6,27h-13.5
		V9.2l13.5,0c7,0,9.9,2.4,9.9,8.9C243.5,24.2,240.7,27,233.6,27z"/>
	<polygon fill="#55565A" points="111.5,28.1 93.8,0 84.2,0 84.2,61.6 94.7,61.6 94.7,19.4 111.5,46.2 128.3,19.4 128.3,61.6 
		138.8,61.6 138.8,0 129.1,0 	"/>
</g>
</svg>
